<svg width="11" height="8" viewBox="0 0 11 8" fill="none" xmlns="http://www.w3.org/2000/svg">
<path d="M0.295828 6.90922C0.483191 7.09547 0.736642 7.20001 1.00083 7.20001C1.26501 7.20001 1.51847 7.09547 1.70583 6.90922L5.29583 3.36922L8.83583 6.90922C9.02319 7.09547 9.27664 7.20001 9.54083 7.20001C9.80501 7.20001 10.0585 7.09547 10.2458 6.90922C10.3396 6.81626 10.414 6.70566 10.4647 6.5838C10.5155 6.46194 10.5416 6.33123 10.5416 6.19922C10.5416 6.06721 10.5155 5.9365 10.4647 5.81464C10.414 5.69278 10.3396 5.58218 10.2458 5.48922L6.00583 1.24922C5.91286 1.15549 5.80226 1.0811 5.6804 1.03033C5.55855 0.97956 5.42784 0.953422 5.29583 0.953422C5.16382 0.953422 5.03311 0.97956 4.91125 1.03033C4.78939 1.0811 4.67879 1.15549 4.58583 1.24922L0.295828 5.48922C0.2021 5.58218 0.127706 5.69278 0.0769367 5.81464C0.0261679 5.9365 2.86102e-05 6.06721 2.86102e-05 6.19922C2.86102e-05 6.33123 0.0261679 6.46194 0.0769367 6.5838C0.127706 6.70566 0.2021 6.81626 0.295828 6.90922Z" fill="white"/>
</svg>
